<svg width="509" height="137" viewBox="0 0 509 137" fill="none" xmlns="http://www.w3.org/2000/svg">
<path d="M283.6 74.1891C273.712 74.1891 266.566 66.7702 266.566 56.3301C266.566 45.89 273.712 38.4711 283.6 38.4711C293.488 38.4711 300.634 45.89 300.634 56.3301C300.634 66.7702 293.488 74.1891 283.6 74.1891ZM283.6 84.3977C298.681 84.3977 310.899 71.8258 310.899 56.3301C310.899 40.8345 298.669 28.2625 283.6 28.2625C268.531 28.2625 256.302 40.8345 256.302 56.3301C256.302 71.8258 268.531 84.3977 283.6 84.3977ZM449.283 73.0805C444.673 80 437.138 84.3977 428.039 84.3977C412.861 84.3977 401.954 72.1181 401.954 56.3301C401.954 40.5421 412.861 28.2625 428.039 28.2625C442.38 28.2625 454.124 40.5421 452.753 60.9106H441.955C443.751 45.5977 436.993 38.0813 427.59 38.0813C418.187 38.0813 411.429 45.5977 411.429 56.3301C411.429 67.0626 418.187 74.5789 427.59 74.5789C433.438 74.5789 438.267 71.6796 441.069 66.9042L449.307 73.0927H449.271L449.283 73.0805ZM408.166 52.6755H449.004V60.9228H408.166V52.6755ZM225.012 74.1891C215.124 74.1891 207.977 66.7702 207.977 56.3301C207.977 45.89 215.124 38.4711 225.012 38.4711C234.9 38.4711 242.046 45.89 242.046 56.3301C242.046 66.7702 234.9 74.1891 225.012 74.1891ZM225.012 84.3977C240.093 84.3977 252.31 71.8258 252.31 56.3301C252.31 40.8345 240.08 28.2625 225.012 28.2625C209.943 28.2625 197.713 40.8345 197.713 56.3301C197.713 71.8258 209.943 84.3977 225.012 84.3977ZM454.61 72.2643L461.671 67.1722C464.036 72.1059 469.339 74.7495 476.521 74.7495C484.504 74.7495 488.035 71.911 488.035 67.026C488.035 56.8783 455.107 67.0626 455.107 43.4902C455.107 34.2683 463.952 28.0554 475.817 28.0554C485.159 28.0554 494.587 32.9405 496.164 41.9796L487.173 44.5256C486.482 38.9706 481.459 36.7169 475.975 36.7169C468.793 36.7169 464.473 39.263 464.473 43.6851C464.473 56.8905 498.19 46.621 498.19 66.7458C498.19 77.1128 490.267 83.8008 476.521 83.8008C466.354 83.8008 457.849 79.5858 454.597 72.2765L454.61 72.2643ZM315.897 82.8384V28.9691H326.404V39.3361C328.2 32.1852 334.375 28.0311 342.71 28.0311C351.713 28.0311 359.017 32.1852 361.261 39.9208C363.736 32.2704 370.846 27.9336 378.72 27.9336C392.223 27.9336 397.841 36.0347 397.841 52.2369V82.8384H387.334V53.0897C387.334 42.5278 383.767 37.0702 374.862 37.0702C365.956 37.0702 361.819 42.7105 361.819 52.9069V82.8384H351.312V53.1871C351.312 42.2476 348.134 37.1677 339.41 37.1677C330.687 37.1677 326.368 43.2953 326.368 53.9424V82.8384H315.861H315.873H315.897ZM127.465 82.8384V19.0529H143.747C165.974 19.0529 175.632 28.4696 175.632 43.0638C175.632 59.5706 165.974 68.5366 143.832 68.5366H137.839V82.814H127.453L127.465 82.8384ZM137.851 58.5716H145.349C158.209 58.5716 165.174 54.0642 165.174 43.076C165.174 32.8308 158.197 28.762 145.349 28.762H137.851V58.5716Z" fill="white"></path>
<path d="M93.4091 50.0563H53.4806C45.8613 50.0563 38.5696 46.9986 33.207 41.5775L11.5381 19.6619C10.9558 19.0772 11.3683 18.0782 12.1933 18.0782H55.2156C67.5545 18.0782 79.129 24.0353 86.3358 34.0855L95.2168 46.4747C96.2966 47.9731 95.2168 50.0685 93.3848 50.0685H93.3969L93.4091 50.0563Z" fill="#843CFF"></path>
<path d="M72.0678 57.9016H51.964C44.6481 57.9016 37.6354 60.8375 32.479 66.0392L16.4882 82.2171C15.9059 82.8018 16.3184 83.8007 17.1434 83.8007H41.9061C49.7802 83.8007 57.2781 80.4019 62.483 74.4692L73.7542 61.6415C75.0403 60.1796 73.9969 57.8772 72.0678 57.8772V57.9016Z" fill="#843CFF"></path>
<path d="M188.505 71.509V19.0529H178.641V72.9343C178.641 78.3919 183.045 82.8384 188.505 82.8384H196.536V72.9343H189.948C189.148 72.9343 188.517 72.2887 188.517 71.4968H188.505V71.509Z" fill="white"></path>
<path d="M369 116.778V98.7604H371.232V106.837H370.978V116.79H369V116.778ZM375.188 117.155C373.926 117.155 372.858 116.839 371.997 116.205C371.135 115.572 370.48 114.719 370.031 113.647C369.582 112.575 369.364 111.357 369.364 110.004C369.364 108.652 369.582 107.434 370.031 106.362C370.48 105.29 371.135 104.437 371.997 103.816C372.87 103.195 373.926 102.878 375.188 102.878C376.449 102.878 377.505 103.182 378.415 103.816C379.313 104.437 380.004 105.29 380.49 106.362C380.975 107.434 381.218 108.652 381.218 110.004C381.218 111.357 380.975 112.575 380.49 113.647C380.004 114.731 379.313 115.584 378.415 116.205C377.517 116.826 376.437 117.143 375.176 117.143L375.188 117.155ZM374.921 115.121C375.806 115.121 376.534 114.889 377.117 114.451C377.699 114.012 378.136 113.391 378.427 112.624C378.718 111.856 378.864 110.991 378.864 110.029C378.864 109.066 378.718 108.214 378.427 107.446C378.136 106.679 377.699 106.07 377.105 105.619C376.51 105.168 375.758 104.949 374.848 104.949C373.938 104.949 373.259 105.168 372.676 105.595C372.106 106.021 371.669 106.618 371.39 107.385C371.111 108.153 370.965 109.03 370.965 110.029C370.965 111.028 371.099 111.893 371.378 112.66C371.657 113.428 372.082 114.037 372.664 114.475C373.246 114.914 373.987 115.133 374.896 115.133L374.921 115.121Z" fill="white"></path>
<path d="M385.088 122.783L387.696 115.681L387.733 117.789L381.848 103.268H384.178L388.788 114.938H387.988L392.307 103.268H394.563L387.235 122.783H385.076H385.088Z" fill="white"></path>
<path d="M407.982 117.155C406.708 117.155 405.568 116.936 404.549 116.51C403.529 116.083 402.692 115.462 402.037 114.646C401.382 113.842 400.945 112.892 400.751 111.783L403.044 111.418C403.335 112.55 403.942 113.44 404.852 114.073C405.774 114.707 406.854 115.036 408.103 115.036C408.904 115.036 409.632 114.914 410.287 114.658C410.93 114.402 411.452 114.037 411.84 113.562C412.229 113.086 412.423 112.526 412.423 111.868C412.423 111.478 412.35 111.137 412.216 110.845C412.071 110.553 411.889 110.309 411.658 110.102C411.428 109.907 411.161 109.736 410.858 109.59C410.554 109.444 410.251 109.322 409.923 109.225L405.349 107.86C404.852 107.714 404.367 107.531 403.906 107.3C403.445 107.069 403.02 106.788 402.656 106.435C402.292 106.082 402.001 105.668 401.782 105.18C401.564 104.693 401.455 104.108 401.455 103.438C401.455 102.378 401.734 101.465 402.28 100.709C402.838 99.9542 403.578 99.3694 404.524 98.9796C405.471 98.5898 406.538 98.3827 407.727 98.3827C408.928 98.3827 410.008 98.602 410.967 99.0283C411.913 99.4547 412.702 100.052 413.333 100.831C413.963 101.611 414.376 102.549 414.594 103.645L412.241 104.06C412.119 103.329 411.84 102.707 411.416 102.171C410.991 101.635 410.457 101.221 409.814 100.941C409.171 100.649 408.467 100.502 407.703 100.502C406.975 100.502 406.308 100.612 405.725 100.856C405.131 101.099 404.67 101.44 404.318 101.867C403.966 102.293 403.796 102.78 403.796 103.341C403.796 103.901 403.954 104.352 404.27 104.681C404.585 105.01 404.973 105.278 405.434 105.473C405.895 105.668 406.344 105.826 406.781 105.96L410.19 106.947C410.578 107.056 411.027 107.203 411.537 107.397C412.047 107.592 412.544 107.86 413.029 108.201C413.515 108.543 413.915 109.005 414.23 109.578C414.546 110.151 414.704 110.869 414.704 111.734C414.704 112.599 414.534 113.379 414.182 114.049C413.83 114.719 413.357 115.291 412.738 115.754C412.119 116.217 411.404 116.558 410.591 116.79C409.778 117.021 408.904 117.143 407.97 117.143L407.982 117.155Z" fill="white"></path>
<path d="M421.134 117.155C420.127 117.155 419.29 116.973 418.61 116.595C417.931 116.229 417.421 115.73 417.082 115.121C416.742 114.512 416.56 113.842 416.56 113.123C416.56 112.404 416.693 111.795 416.96 111.284C417.227 110.772 417.603 110.333 418.101 109.98C418.598 109.627 419.181 109.359 419.86 109.152C420.503 108.981 421.219 108.823 422.007 108.701C422.796 108.567 423.597 108.457 424.41 108.348C425.223 108.238 425.987 108.141 426.703 108.031L425.902 108.494C425.914 107.3 425.671 106.411 425.174 105.838C424.677 105.253 423.815 104.973 422.578 104.973C421.765 104.973 421.049 105.156 420.442 105.534C419.836 105.911 419.399 106.508 419.156 107.337L417.045 106.703C417.373 105.521 417.992 104.583 418.926 103.913C419.86 103.243 421.085 102.902 422.602 102.902C423.827 102.902 424.871 103.122 425.744 103.56C426.618 103.999 427.249 104.656 427.637 105.546C427.831 105.96 427.952 106.411 428.001 106.898C428.049 107.385 428.074 107.897 428.074 108.433V116.79H426.108V113.549L426.569 113.854C426.06 114.95 425.356 115.779 424.434 116.339C423.524 116.899 422.42 117.167 421.122 117.167L421.134 117.155ZM421.474 115.291C422.274 115.291 422.966 115.145 423.548 114.865C424.131 114.573 424.604 114.195 424.968 113.72C425.32 113.245 425.562 112.733 425.671 112.173C425.793 111.759 425.853 111.296 425.866 110.784C425.878 110.272 425.89 109.883 425.89 109.59L426.666 109.931C425.938 110.041 425.235 110.138 424.531 110.236C423.827 110.333 423.172 110.419 422.553 110.528C421.935 110.626 421.377 110.747 420.879 110.894C420.515 111.016 420.175 111.162 419.848 111.357C419.532 111.539 419.265 111.783 419.071 112.075C418.877 112.368 418.78 112.721 418.78 113.135C418.78 113.501 418.877 113.854 419.059 114.183C419.241 114.512 419.532 114.792 419.933 114.999C420.333 115.206 420.843 115.316 421.486 115.316L421.474 115.291Z" fill="white"></path>
<path d="M431.325 116.778V103.268H433.315V106.886H433.57V116.778H431.325ZM440.922 116.778V110.004C440.922 109.371 440.862 108.762 440.752 108.165C440.631 107.568 440.437 107.044 440.17 106.569C439.891 106.094 439.527 105.716 439.054 105.448C438.581 105.168 437.986 105.034 437.282 105.034C436.724 105.034 436.215 105.132 435.766 105.327C435.317 105.521 434.929 105.802 434.601 106.179C434.274 106.557 434.031 107.044 433.849 107.617C433.667 108.201 433.582 108.884 433.582 109.663L432.126 109.213C432.126 107.909 432.357 106.788 432.83 105.85C433.303 104.912 433.958 104.181 434.807 103.682C435.657 103.182 436.664 102.927 437.816 102.927C438.69 102.927 439.43 103.061 440.049 103.341C440.667 103.621 441.177 103.986 441.577 104.437C441.99 104.9 442.305 105.4 442.536 105.96C442.766 106.52 442.936 107.093 443.033 107.678C443.13 108.262 443.179 108.811 443.179 109.322V116.79H440.934L440.922 116.778Z" fill="white"></path>
<path d="M446.394 116.778V98.7604H448.651V109.773L454.292 103.268H457.168L451.223 110.029L457.859 116.79H454.753L448.639 110.285V116.79H446.382L446.394 116.778Z" fill="white"></path>
<path d="M459.097 116.778V98.7604H461.087V108.713H461.341V116.79H459.097V116.778ZM468.694 116.778V110.004C468.694 109.371 468.633 108.762 468.524 108.165C468.403 107.568 468.208 107.044 467.942 106.569C467.663 106.094 467.299 105.716 466.825 105.448C466.352 105.168 465.758 105.034 465.054 105.034C464.496 105.034 463.986 105.132 463.537 105.327C463.089 105.521 462.7 105.802 462.373 106.179C462.045 106.557 461.802 107.044 461.62 107.617C461.438 108.202 461.354 108.884 461.354 109.663L459.898 109.213C459.898 107.909 460.128 106.788 460.601 105.85C461.074 104.912 461.73 104.181 462.579 103.682C463.428 103.182 464.435 102.927 465.588 102.927C466.461 102.927 467.201 103.061 467.82 103.341C468.439 103.621 468.949 103.987 469.349 104.437C469.761 104.9 470.077 105.4 470.307 105.96C470.538 106.52 470.708 107.093 470.805 107.678C470.902 108.262 470.95 108.811 470.95 109.322V116.79H468.706L468.694 116.778Z" fill="white"></path>
<path d="M476.046 122.783L478.655 115.681L478.691 117.789L472.807 103.268H475.136L479.747 114.938H478.946L483.265 103.268H485.522L478.194 122.783H476.034H476.046Z" fill="white"></path>
<path d="M490.921 117.155C489.914 117.155 489.077 116.973 488.397 116.595C487.718 116.229 487.208 115.73 486.868 115.121C486.529 114.512 486.347 113.842 486.347 113.123C486.347 112.404 486.48 111.795 486.747 111.284C487.014 110.772 487.39 110.333 487.888 109.98C488.385 109.627 488.967 109.359 489.647 109.152C490.29 108.981 491.006 108.823 491.794 108.701C492.583 108.567 493.384 108.457 494.197 108.348C495.009 108.238 495.774 108.141 496.49 108.031L495.689 108.494C495.701 107.3 495.458 106.411 494.961 105.838C494.463 105.253 493.602 104.973 492.365 104.973C491.552 104.973 490.836 105.156 490.229 105.534C489.623 105.911 489.186 106.508 488.943 107.337L486.832 106.703C487.16 105.521 487.778 104.583 488.713 103.913C489.647 103.243 490.872 102.902 492.389 102.902C493.614 102.902 494.658 103.122 495.531 103.56C496.405 103.999 497.036 104.656 497.424 105.546C497.618 105.96 497.739 106.411 497.788 106.898C497.836 107.385 497.861 107.897 497.861 108.433V116.79H495.895V113.549L496.356 113.854C495.847 114.95 495.143 115.779 494.221 116.339C493.311 116.899 492.207 117.167 490.909 117.167L490.921 117.155ZM491.248 115.291C492.049 115.291 492.741 115.145 493.323 114.865C493.905 114.573 494.379 114.195 494.743 113.72C495.094 113.245 495.337 112.733 495.446 112.173C495.568 111.759 495.628 111.296 495.64 110.784C495.652 110.272 495.665 109.883 495.665 109.59L496.441 109.931C495.713 110.041 495.009 110.138 494.306 110.236C493.602 110.333 492.947 110.419 492.328 110.528C491.709 110.626 491.151 110.747 490.654 110.894C490.29 111.016 489.95 111.162 489.623 111.357C489.307 111.539 489.04 111.783 488.846 112.075C488.652 112.368 488.555 112.721 488.555 113.135C488.555 113.501 488.652 113.854 488.834 114.183C489.016 114.512 489.307 114.792 489.707 114.999C490.108 115.206 490.617 115.316 491.26 115.316L491.248 115.291Z" fill="white"></path>
</svg>